<svg width="512" height="512" viewBox="0 0 512 512" fill="none" xmlns="http://www.w3.org/2000/svg">
<path d="M64 106.667C64 83.2 83.2 64 106.667 64H405.333C428.8 64 448 83.2 448 106.667V405.333C448 428.8 428.8 448 405.333 448H106.667C83.2 448 64 428.8 64 405.333V106.667Z" fill="#C5CAE9"/>
<path d="M96 96V416H416V96H96ZM266.667 330.667H181.333V181.333H213.333V305.067H266.667V330.667ZM343.467 246.4L333.867 245.333C325.333 245.333 320 248.533 317.867 256V330.667H288V217.6H315.733L316.8 229.333C321.067 219.733 327.467 215.467 336 215.467C339.2 215.467 342.4 215.467 344.533 216.533L343.467 246.4Z" fill="#020F16"/>
</svg>
