<svg width="512" height="512" viewBox="0 0 512 512" fill="none" xmlns="http://www.w3.org/2000/svg">
<path d="M53.3333 106.667C53.3333 83.104 72.4373 64 96 64H394.667C418.229 64 437.333 83.104 437.333 106.667V405.333C437.333 428.896 418.229 448 394.667 448H96C72.4373 448 53.3333 428.896 53.3333 405.333V106.667Z" fill="#E91E63"/>
<path d="M280.352 240.565C274.933 240.565 270.976 242.752 268.48 247.125C265.984 251.499 264.725 259.285 264.725 270.464V278.272C264.725 289.387 265.909 297.152 268.267 301.557C270.624 305.963 274.624 308.171 280.245 308.171C286.08 308.171 290.496 305.568 293.472 300.363V248.907C290.56 243.339 286.187 240.565 280.352 240.565Z" fill="#16020B"/>
<path d="M85.3334 96V416H405.333V96H85.3334ZM214.837 330.667H184.213V178.997H214.837V330.667ZM323.168 330.667H296.395L295.04 319.211C289.003 328.245 281.227 332.757 271.701 332.757C259.893 332.757 250.88 328.245 244.672 319.211C238.464 310.176 235.285 296.917 235.136 279.424V270.88C235.136 252.416 238.261 238.624 244.512 229.525C250.763 220.427 259.861 215.883 271.808 215.883C280.491 215.883 287.701 219.637 293.472 227.136V170.667H323.157V330.667H323.168Z" fill="#16020B"/>
</svg>
