<svg width="529" height="176" viewBox="0 0 529 176" fill="none" xmlns="http://www.w3.org/2000/svg">
<g clip-path="url(#clip0_42_51)">
<path d="M125.331 0H198.95V176L125.331 0Z" fill="#EB1000"/>
<path d="M73.619 0H0V176L73.619 0Z" fill="#EB1000"/>
<path d="M99.4005 64.8264L146.344 176H115.644L101.636 140.681H67.3599L99.4005 64.8264Z" fill="#EB1000"/>
</g>
<path d="M261.91 119.956H249.698L273.939 52.8331H285.968L310.209 119.956H297.813L292.395 104.438H267.328L261.91 119.956ZM278.438 72.8505L270.817 94.5208H288.998L281.285 72.8505C280.734 71.1059 280.091 69.0858 279.907 67.7084C279.632 68.994 279.081 71.0141 278.438 72.8505ZM333.551 121.149C320.42 121.149 312.248 111.508 312.248 97.4591C312.248 83.3184 320.512 73.2178 334.194 73.2178C340.529 73.2178 346.131 75.8807 348.977 80.38V51.6394H360.088V119.956H349.803L349.069 112.885C346.314 118.119 340.437 121.149 333.551 121.149ZM336.03 110.865C343.835 110.865 348.885 105.264 348.885 97.0918C348.885 88.9196 343.835 83.2265 336.03 83.2265C328.225 83.2265 323.45 89.0114 323.45 97.0918C323.45 105.172 328.225 110.865 336.03 110.865ZM369.099 97.1836C369.099 83.0429 379.292 73.3096 393.341 73.3096C407.389 73.3096 417.582 83.0429 417.582 97.1836C417.582 111.324 407.389 121.058 393.341 121.058C379.292 121.058 369.099 111.324 369.099 97.1836ZM380.302 97.1836C380.302 105.448 385.627 111.049 393.341 111.049C401.054 111.049 406.379 105.448 406.379 97.1836C406.379 88.9196 401.054 83.3184 393.341 83.3184C385.627 83.3184 380.302 88.9196 380.302 97.1836ZM436.837 119.956H426.461V51.6394H437.664V81.2064C440.602 76.1562 446.662 73.126 453.549 73.126C466.496 73.126 474.393 83.2265 474.393 97.5509C474.393 111.508 465.853 121.149 452.815 121.149C446.02 121.149 440.235 118.119 437.572 112.885L436.837 119.956ZM437.756 97.0918C437.756 105.264 442.806 110.865 450.519 110.865C458.416 110.865 463.099 105.172 463.099 97.0918C463.099 89.0114 458.416 83.2265 450.519 83.2265C442.806 83.2265 437.756 88.9196 437.756 97.0918ZM503.606 121.149C490.108 121.149 480.65 111.324 480.65 97.2755C480.65 83.0429 489.924 73.2178 503.238 73.2178C516.828 73.2178 525.46 82.3083 525.46 96.4491V99.8465L491.301 99.9383C492.128 107.927 496.352 111.967 503.789 111.967C509.941 111.967 513.982 109.58 515.267 105.264H525.643C523.715 115.181 515.451 121.149 503.606 121.149ZM503.33 82.4001C496.719 82.4001 492.679 85.9812 491.577 92.7761H514.349C514.349 86.5322 510.033 82.4001 503.33 82.4001Z" fill="#EB1000"/>
<defs>
<clipPath id="clip0_42_51">
<rect width="198.95" height="176" fill="white"/>
</clipPath>
</defs>
</svg>
