<svg width="512" height="512" viewBox="0 0 512 512" fill="none" xmlns="http://www.w3.org/2000/svg">
<path d="M64 106.667C64 83.104 83.104 64 106.667 64H405.333C428.896 64 448 83.104 448 106.667V405.333C448 428.896 428.896 448 405.333 448H106.667C83.104 448 64 428.896 64 405.333V106.667Z" fill="#FF5722"/>
<path d="M96 96V416H416V96H96ZM252.704 330.667L244.576 299.627H202.805L194.688 330.667H162.293L209.685 178.997H237.707L285.419 330.667H252.704ZM329.067 330.667H299.488V217.963H329.067V330.667ZM325.888 200.043C322.997 203.029 319.104 204.523 314.165 204.523C309.227 204.523 305.333 203.029 302.443 200.043C299.552 197.056 298.123 193.301 298.123 188.789C298.123 184.203 299.584 180.459 302.496 177.536C305.408 174.613 309.312 173.163 314.165 173.163C319.019 173.163 322.912 174.624 325.835 177.536C328.757 180.448 330.208 184.203 330.208 188.789C330.208 193.301 328.768 197.056 325.888 200.043Z" fill="#1C0802"/>
<path d="M209.483 274.101H237.813L223.648 220.043L209.483 274.101Z" fill="#1C0802"/>
</svg>
