<svg width="512" height="512" viewBox="0 0 512 512" fill="none" xmlns="http://www.w3.org/2000/svg">
<path d="M64 106.667C64 83.104 83.104 64 106.667 64H405.333C428.896 64 448 83.104 448 106.667V405.333C448 428.896 428.896 448 405.333 448H106.667C83.104 448 64 428.896 64 405.333V106.667Z" fill="#03A9F4"/>
<path d="M213.504 204.523H192.149V251.819H213.195C219.029 251.819 223.541 249.909 226.741 246.091C229.941 242.272 231.531 236.715 231.531 229.419C231.531 221.845 229.899 215.829 226.635 211.349C223.371 206.869 218.987 204.597 213.504 204.523Z" fill="#020F16"/>
<path d="M96 96V416H416V96H96ZM249.227 264.416C240.416 273.035 228.192 277.333 212.565 277.333H192.149V330.667H161.525V178.997H213.195C228.192 178.997 240.16 183.659 249.077 192.96C257.995 202.261 262.464 214.347 262.464 229.205C262.464 244.064 258.048 255.797 249.227 264.416ZM348.608 323.584C341.045 329.696 331.104 332.747 318.816 332.747C310.549 332.747 303.253 331.136 296.939 327.904C290.624 324.672 285.664 320.171 282.091 314.411C278.517 308.651 276.725 302.432 276.725 295.765H304.747C304.896 300.896 306.08 304.757 308.341 307.328C310.603 309.899 314.293 311.179 319.435 311.179C327.349 311.179 331.307 307.605 331.307 300.448C331.307 297.952 330.112 295.637 327.712 293.525C325.312 291.413 320 288.555 311.733 284.939C299.584 280.011 291.232 274.912 286.677 269.621C282.123 264.331 279.851 257.781 279.851 249.931C279.851 240.064 283.413 231.925 290.528 225.504C297.643 219.083 307.083 215.872 318.805 215.872C331.157 215.872 341.056 219.072 348.491 225.451C355.925 231.829 359.637 240.416 359.637 251.179H330.155C330.155 242.016 326.347 237.429 318.699 237.429C315.573 237.429 313.013 238.4 310.987 240.341C308.96 242.283 307.968 245.003 307.968 248.469C307.968 250.965 309.077 253.173 311.307 255.083C313.536 256.992 318.763 259.723 327.04 263.264C339.061 267.712 347.541 272.661 352.512 278.112C357.483 283.563 359.957 290.635 359.957 299.307C359.957 309.387 356.171 317.472 348.608 323.584Z" fill="#020F16"/>
</svg>
