<svg width="256" height="256" viewBox="0 0 232 256" fill="none" xmlns="http://www.w3.org/2000/svg">
<g clip-path="url(#clip0_164_2)">
<path d="M46.2228 193.631C46.2228 200.316 51.6721 205.774 58.3768 205.774H72.2712V240.172C72.2712 248.886 79.2611 256 87.8489 256C96.4651 256 103.426 248.915 103.426 240.172V205.745H127.677V240.143C127.677 248.858 134.668 255.972 143.255 255.972C151.871 255.972 158.833 248.886 158.833 240.143V205.745H172.727C179.432 205.745 184.881 200.288 184.881 193.603V80.6935H46.2228V193.631ZM148.105 22.1819L160.915 3.61124C161.658 2.52557 161.486 1.06849 160.488 0.354234C159.489 -0.331449 158.062 0.0113942 157.321 1.09706L144.026 20.4105C135.267 16.9535 125.509 15.0392 115.267 15.0392C105.024 15.0392 95.2667 16.9535 86.5079 20.4105L73.2127 1.12563C72.4708 0.0399639 71.0444 -0.331448 70.0457 0.382806C69.0472 1.06849 68.8761 2.497 69.6178 3.63981L82.4281 22.2104C62.0573 31.6957 47.7919 49.6663 45.966 70.6653H184.625C182.742 49.6378 168.448 31.6671 148.105 22.1819ZM85.9943 51.4662C84.4765 51.4662 82.9926 51.0156 81.7305 50.171C80.4684 49.3266 79.4847 48.1262 78.9039 46.7219C78.323 45.3176 78.1709 43.7723 78.4671 42.2815C78.7632 40.7907 79.4942 39.4213 80.5675 38.3465C81.6409 37.2717 83.0083 36.5398 84.4971 36.2432C85.9858 35.9466 87.529 36.0988 88.9314 36.6806C90.3337 37.2622 91.5323 38.2473 92.3756 39.5112C93.219 40.7749 93.669 42.2609 93.669 43.7809C93.6638 45.8176 92.8535 47.7692 91.4153 49.2095C89.9773 50.6496 88.0282 51.461 85.9943 51.4662ZM145.452 51.4662C143.933 51.4662 142.45 51.0156 141.188 50.171C139.926 49.3266 138.943 48.1262 138.362 46.7219C137.78 45.3176 137.628 43.7723 137.925 42.2815C138.221 40.7907 138.952 39.4213 140.026 38.3465C141.098 37.2717 142.465 36.5398 143.955 36.2432C145.444 35.9466 146.986 36.0988 148.389 36.6806C149.791 37.2622 150.99 38.2473 151.834 39.5112C152.677 40.7749 153.126 42.2609 153.126 43.7809C153.121 45.8176 152.311 47.7692 150.872 49.2095C149.435 50.6496 147.485 51.461 145.452 51.4662ZM209.189 80.2364C200.573 80.2364 193.611 87.3219 193.611 96.0643V157.891C193.611 166.604 200.602 173.718 209.189 173.718C217.805 173.718 224.767 166.633 224.767 157.891V96.0357C224.795 87.2932 217.834 80.2364 209.189 80.2364ZM21.2871 80.2364C12.6709 80.2364 5.70947 87.3219 5.70947 96.0643V157.891C5.70947 166.604 12.6994 173.718 21.2871 173.718C29.9033 173.718 36.8648 166.633 36.8648 157.891V96.0357C36.8648 87.2932 29.8748 80.2364 21.2871 80.2364Z" fill="#F2F2F2"/>
</g>
<defs>
<clipPath id="clip0_164_2">
<rect width="230.4" height="256" fill="white" transform="translate(0.800049)"/>
</clipPath>
</defs>
</svg>
