<svg width="231" height="256" viewBox="0 0 231 256" fill="none" xmlns="http://www.w3.org/2000/svg">
<g clip-path="url(#clip0_164_4)">
<path d="M72.8927 256C64.4354 255.542 56.4767 251.848 50.6599 245.683C43.7007 238.979 37.4906 231.537 32.1392 223.487C23.7796 211.5 17.1718 198.378 12.5155 184.521C7.24587 169.613 4.47364 153.935 4.31102 138.122C3.90162 122.605 7.73889 107.272 15.4073 93.7827C21.0237 84.0596 29.0347 75.9401 38.6759 70.199C48.2104 64.4824 59.0906 61.4053 70.2028 61.2827C78.5796 61.7789 86.8116 63.6964 94.5474 66.953C100.721 69.6737 107.204 71.5863 113.862 72.6368C121.206 71.0962 128.382 68.8407 135.287 65.9025C143.46 62.7068 152.114 60.9171 160.882 60.6093C162.054 60.6093 163.209 60.6093 164.326 60.7439C183.56 61.2961 201.448 70.7512 212.747 86.3345C203.929 91.057 196.592 98.1357 191.551 106.783C186.511 115.431 183.962 125.31 184.192 135.32C184.104 142.975 185.638 150.561 188.69 157.58C191.743 164.598 196.247 170.888 201.905 176.036C207.057 180.948 213.054 184.887 219.606 187.66C218.261 191.7 216.715 195.606 215.074 199.539C211.348 208.23 206.751 216.52 201.355 224.282C196.251 232.056 190.311 239.247 183.641 245.723C177.556 251.77 169.446 255.336 160.882 255.731C153.625 255.409 146.494 253.704 139.874 250.707C132.735 247.593 125.062 245.887 117.278 245.683C109.274 245.841 101.374 247.538 94.0093 250.68C87.6481 253.554 80.8519 255.343 73.9015 255.973L72.8927 256ZM115.26 60.6093C114.252 60.6093 113.243 60.6093 112.234 60.4881C112.022 58.8849 111.91 57.2699 111.898 55.6527C112.338 42.1993 117.588 29.3516 126.693 19.4488C131.785 13.7577 137.958 9.13802 144.85 5.85889C151.273 2.54767 158.293 0.555674 165.497 0C165.698 1.7644 165.698 3.4884 165.698 5.13158C165.51 18.3736 160.541 31.0996 151.71 40.9583C147.435 46.699 141.956 51.433 135.66 54.8278C129.362 58.2225 122.4 60.1958 115.26 60.6093Z" fill="#F2F2F2"/>
</g>
<defs>
<clipPath id="clip0_164_4">
<rect width="230.4" height="256" fill="white" transform="translate(0.200073)"/>
</clipPath>
</defs>
</svg>
