<svg width="512" height="512" viewBox="0 0 512 512" fill="none" xmlns="http://www.w3.org/2000/svg">
<path d="M192.011 149.661L157.968 183.702L414.065 439.798L448 405.757L192.011 149.661ZM212.596 215.702L224.011 204.288L425.479 405.757L414.065 417.171L212.596 215.702ZM184 64H200V104H184V64ZM184 268H200V308H184V268ZM280 176H320V192H280V176ZM64 176H104V192H64V176ZM139.675 122.558L128.362 133.872L100.078 105.588L111.391 94.274L139.675 122.558ZM111.389 278.128L100.077 266.816L128.361 238.532L139.673 249.844L111.389 278.128ZM255.641 133.877L244.328 122.564L272.61 94.28L283.923 105.593L255.641 133.877Z" fill="#F2F2F2"/>
</svg>
